<svg width="18" height="18" viewBox="0 0 18 18" fill="none" xmlns="http://www.w3.org/2000/svg">
<path d="M17.2815 5.49644C16.3325 3.28394 14.7199 1.67485 12.4889 0.723354C11.3739 0.247795 10.2056 0.00488281 8.98521 0.00488281C7.76497 0.00488281 6.60538 0.245501 5.49156 0.723354C3.27906 1.67232 1.65926 3.28038 0.708588 5.49644C0.232206 6.60668 0 7.76982 0 8.99006C0 10.2105 0.232206 11.3833 0.708588 12.4938C1.65926 14.7099 3.27926 16.3276 5.49156 17.2768C6.60559 17.7546 7.76494 17.995 8.98521 17.995C10.2055 17.995 11.3739 17.7521 12.4887 17.2768C14.7197 16.3252 16.3324 14.7061 17.2816 12.4938C17.7594 11.3798 18 10.2105 18 8.99006C18 7.76982 17.7596 6.61044 17.2815 5.49644ZM15.8448 12.9662C15.1383 14.1778 14.1704 15.139 12.9514 15.8497C11.7398 16.5562 10.4123 16.9125 8.98541 16.9125C7.91276 16.9125 6.88924 16.7059 5.91482 16.2826C4.94044 15.8596 4.09915 15.3034 3.39538 14.5999C2.69162 13.8961 2.13147 13.0466 1.71262 12.0705C1.295 11.098 1.09262 10.0629 1.09262 8.99009C1.09262 7.56303 1.44324 6.24221 2.14576 5.03394C2.85079 3.82127 3.81888 2.85903 5.02926 2.15041C6.23944 1.44182 7.55838 1.08741 8.98521 1.08741C10.4123 1.08741 11.7396 1.44391 12.9512 2.15041C14.1702 2.86112 15.136 3.82332 15.8446 5.03391C16.5532 6.2443 16.9074 7.56303 16.9074 8.99006C16.9074 10.4171 16.5555 11.747 15.8448 12.9662Z" fill="#7F7F7F"/>
<path d="M9.5555 8.91124V3.81332C9.5555 3.50827 9.28971 3.26221 8.98462 3.26221C8.6993 3.26221 8.44336 3.50827 8.44336 3.81332V8.98994C8.44336 8.99983 8.4631 9.0393 8.4631 9.06871C8.44336 9.24588 8.49271 9.3935 8.61071 9.51171L11.5534 12.4542C11.7503 12.6511 12.1144 12.6511 12.3112 12.4542C12.5375 12.2279 12.5226 11.8995 12.3112 11.6866L9.5555 8.91124Z" fill="#7F7F7F"/>
</svg>
