<svg width="45" height="45" viewBox="0 0 45 45" fill="none" xmlns="http://www.w3.org/2000/svg">
<rect width="45" height="45" fill="#55ACEE"/>
<path fill-rule="evenodd" clip-rule="evenodd" d="M21.8261 18.2883L21.8733 19.0668L21.0864 18.9715C18.2221 18.606 15.7197 17.3667 13.595 15.2853L12.5563 14.2525L12.2887 15.0152C11.7221 16.7153 12.0841 18.5107 13.2645 19.7182C13.894 20.3856 13.7524 20.4809 12.6664 20.0837C12.2887 19.9566 11.9582 19.8612 11.9267 19.9089C11.8166 20.0201 12.1943 21.466 12.4933 22.038C12.9025 22.8324 13.7366 23.611 14.6495 24.0718L15.4206 24.4372L14.5078 24.4531C13.6265 24.4531 13.595 24.469 13.6894 24.8027C14.0042 25.8354 15.2475 26.9318 16.6325 27.4084L17.6083 27.7421L16.7584 28.2505C15.4993 28.9814 14.0199 29.3945 12.5405 29.4263C11.8323 29.4422 11.25 29.5057 11.25 29.5534C11.25 29.7123 13.1701 30.6021 14.2875 30.9516C17.6397 31.9844 21.6215 31.5395 24.6118 29.7758C26.7365 28.5206 28.8611 26.0261 29.8527 23.611C30.3878 22.324 30.9229 19.9725 30.9229 18.8444C30.9229 18.1135 30.9701 18.0181 31.8514 17.1443C32.3708 16.6358 32.8587 16.0797 32.9531 15.9208C33.1105 15.6189 33.0947 15.6189 32.2921 15.889C30.9543 16.3657 30.7655 16.3022 31.4265 15.5872C31.9144 15.0787 32.4967 14.1572 32.4967 13.8871C32.4967 13.8394 32.2606 13.9188 31.9931 14.0618C31.7098 14.2207 31.0802 14.4591 30.6081 14.6021L29.7582 14.8722L28.987 14.3478C28.5621 14.0618 27.9641 13.7441 27.6493 13.6487C26.8466 13.4263 25.6191 13.4581 24.8951 13.7123C22.9278 14.4273 21.6845 16.2704 21.8261 18.2883Z" fill="white"/>
</svg>
