<svg width="22" height="22" viewBox="0 0 22 22" fill="none" xmlns="http://www.w3.org/2000/svg">
<path fill-rule="evenodd" clip-rule="evenodd" d="M11.3686 0.161377C8.52507 0.161377 8.16821 0.17381 7.05138 0.224635C5.93673 0.275678 5.17589 0.452146 4.51015 0.711067C3.82151 0.978496 3.23735 1.33623 2.65538 1.91842C2.07297 2.5004 1.71523 3.08455 1.44693 3.77297C1.18736 4.43893 1.01067 5.19999 0.960501 6.3142C0.910549 7.43103 0.897461 7.78811 0.897461 10.6317C0.897461 13.4752 0.910113 13.831 0.960719 14.9478C1.01198 16.0625 1.18845 16.8233 1.44715 17.4891C1.7148 18.1777 2.07253 18.7619 2.65473 19.3438C3.23648 19.9262 3.82064 20.2848 4.50884 20.5523C5.17501 20.8112 5.93607 20.9877 7.0505 21.0387C8.16734 21.0895 8.52398 21.102 11.3673 21.102C14.2111 21.102 14.5669 21.0895 15.6837 21.0387C16.7984 20.9877 17.5601 20.8112 18.2262 20.5523C18.9147 20.2848 19.4979 19.9262 20.0797 19.3438C20.6621 18.7619 21.0198 18.1777 21.2881 17.4893C21.5455 16.8233 21.7222 16.0623 21.7746 14.9481C21.8247 13.8312 21.8378 13.4752 21.8378 10.6317C21.8378 7.78811 21.8247 7.43125 21.7746 6.31442C21.7222 5.19977 21.5455 4.43893 21.2881 3.77319C21.0198 3.08455 20.6621 2.5004 20.0797 1.91842C19.4973 1.33601 18.9149 0.978278 18.2256 0.711067C17.5581 0.452146 16.7968 0.275678 15.6822 0.224635C14.5653 0.17381 14.2098 0.161377 11.3654 0.161377H11.3686ZM10.4299 2.04823C10.7087 2.04779 11.0197 2.04823 11.3692 2.04823C14.1647 2.04823 14.4961 2.05826 15.6001 2.10843C16.6209 2.15511 17.175 2.32569 17.544 2.46901C18.0327 2.65878 18.381 2.88564 18.7472 3.2521C19.1137 3.61856 19.3406 3.96757 19.5308 4.45618C19.6741 4.82482 19.8449 5.37888 19.8913 6.39973C19.9415 7.50347 19.9524 7.83503 19.9524 10.6293C19.9524 13.4236 19.9415 13.7551 19.8913 14.8589C19.8447 15.8797 19.6741 16.4338 19.5308 16.8024C19.341 17.291 19.1137 17.6389 18.7472 18.0052C18.3808 18.3716 18.0329 18.5985 17.544 18.7883C17.1754 18.9322 16.6209 19.1024 15.6001 19.1491C14.4963 19.1992 14.1647 19.2101 11.3692 19.2101C8.57339 19.2101 8.24205 19.1992 7.13831 19.1491C6.11745 19.1019 5.5634 18.9314 5.1941 18.7881C4.70549 18.5983 4.35648 18.3714 3.99002 18.005C3.62356 17.6385 3.3967 17.2904 3.20649 16.8015C3.06318 16.4329 2.89238 15.8788 2.84592 14.858C2.79575 13.7542 2.78572 13.4227 2.78572 10.6267C2.78572 7.83067 2.79575 7.50085 2.84592 6.39711C2.8926 5.37626 3.06318 4.8222 3.20649 4.45313C3.39627 3.96451 3.62356 3.6155 3.99002 3.24904C4.35648 2.88258 4.70549 2.65573 5.1941 2.46552C5.56318 2.32155 6.11745 2.15141 7.13831 2.10451C8.10419 2.06088 8.47851 2.04779 10.4299 2.04561V2.04823ZM16.9577 3.78676C16.2641 3.78676 15.7013 4.34888 15.7013 5.04276C15.7013 5.73641 16.2641 6.29919 16.9577 6.29919C17.6514 6.29919 18.2142 5.73641 18.2142 5.04276C18.2142 4.3491 17.6514 3.78632 16.9577 3.78632V3.78676ZM11.3693 5.25471C8.39988 5.25471 5.99236 7.66222 5.99236 10.6316C5.99236 13.6011 8.39988 16.0075 11.3693 16.0075C14.3387 16.0075 16.7454 13.6011 16.7454 10.6316C16.7454 7.66222 14.3385 5.25471 11.3691 5.25471H11.3693ZM11.3687 7.14158C13.2961 7.14158 14.8588 8.70405 14.8588 10.6317C14.8588 12.5591 13.2961 14.1218 11.3687 14.1218C9.4411 14.1218 7.87862 12.5591 7.87862 10.6317C7.87862 8.70405 9.4411 7.14158 11.3687 7.14158Z" fill="black"/>
</svg>
