<svg width="25" height="25" viewBox="0 0 25 25" fill="none" xmlns="http://www.w3.org/2000/svg">
<path d="M3.12498 0H16.4007L23.4375 7.0094V23.4375C23.4375 24.3008 22.7375 25 21.875 25H3.12498C2.26246 25 1.5625 24.3008 1.5625 23.4375V1.56248C1.5625 0.699234 2.26254 0 3.12498 0Z" fill="black"/>
<path d="M23.4148 7.03125H17.9687C17.1062 7.03125 16.4062 6.33128 16.4062 5.46876V0.015625L23.4148 7.03125Z" fill="#FFED00"/>
<path d="M17.5766 11.846C17.8383 11.846 17.9664 11.6179 17.9664 11.3968C17.9664 11.1679 17.8328 10.9468 17.5766 10.9468H16.0859C15.7945 10.9468 15.632 11.1882 15.632 11.4546V15.1179C15.632 15.4444 15.818 15.6257 16.0695 15.6257C16.3196 15.6257 16.5063 15.4444 16.5063 15.1179V14.1124H17.4079C17.6876 14.1124 17.8274 13.8835 17.8274 13.6562C17.8274 13.4335 17.6876 13.2124 17.4079 13.2124H16.5063V11.846H17.5766ZM12.5383 10.9468H11.4476C11.1515 10.9468 10.9414 11.1499 10.9414 11.4514V15.121C10.9414 15.4952 11.2437 15.6124 11.4601 15.6124H12.6046C13.9593 15.6124 14.8538 14.721 14.8538 13.3452C14.8531 11.8905 14.011 10.9468 12.5383 10.9468ZM12.5907 14.7078H11.9258V11.8515H12.525C13.4321 11.8515 13.8266 12.4601 13.8266 13.2999C13.8266 14.0859 13.439 14.7078 12.5907 14.7078ZM8.59532 10.9468H7.51486C7.20938 10.9468 7.03906 11.1483 7.03906 11.4546V15.1179C7.03906 15.4444 7.23436 15.6257 7.49684 15.6257C7.75931 15.6257 7.95461 15.4444 7.95461 15.1179V14.0483H8.63194C9.46787 14.0483 10.1577 13.4561 10.1577 12.5038C10.1578 11.5718 9.4922 10.9468 8.59532 10.9468ZM8.57738 13.189H7.9547V11.807H8.57738C8.96175 11.807 9.20628 12.1069 9.20628 12.4983C9.20548 12.889 8.96175 13.189 8.57738 13.189Z" fill="white"/>
</svg>
