<svg width="20" height="17" viewBox="0 0 20 17" fill="none" xmlns="http://www.w3.org/2000/svg">
<path fill-rule="evenodd" clip-rule="evenodd" d="M9.59649 4.95666L9.63768 5.63596L8.95109 5.55278C6.45188 5.23392 4.26851 4.15259 2.41471 2.33651L1.5084 1.4354L1.27496 2.10084C0.780609 3.5842 1.09644 5.15074 2.12634 6.20435C2.67561 6.7866 2.55202 6.86978 1.60452 6.5232C1.27496 6.4123 0.986588 6.32912 0.959124 6.37071C0.863001 6.46775 1.19257 7.7293 1.45347 8.22838C1.8105 8.92154 2.53829 9.60084 3.33474 10.0029L4.00761 10.3217L3.21116 10.3356C2.44217 10.3356 2.41471 10.3495 2.4971 10.6406C2.77173 11.5417 3.85655 12.4982 5.06496 12.9141L5.91634 13.2053L5.17482 13.6489C4.07627 14.2866 2.78547 14.647 1.49467 14.6748C0.876733 14.6886 0.368652 14.7441 0.368652 14.7857C0.368652 14.9243 2.04394 15.7007 3.01891 16.0056C5.9438 16.9068 9.41797 16.5186 12.027 14.9798C13.8808 13.8846 15.7346 11.708 16.5998 9.60084C17.0666 8.47792 17.5335 6.42616 17.5335 5.44187C17.5335 4.80416 17.5747 4.72098 18.3437 3.95851C18.7969 3.51488 19.2225 3.02967 19.3049 2.89104C19.4423 2.62764 19.4285 2.62764 18.7282 2.86331C17.561 3.27921 17.3962 3.22376 17.9729 2.59991C18.3986 2.15629 18.9067 1.35222 18.9067 1.11655C18.9067 1.07496 18.7007 1.14427 18.4673 1.26904C18.2201 1.40768 17.6708 1.61562 17.2589 1.74039L16.5174 1.97607L15.8445 1.51858C15.4737 1.26904 14.9519 0.991779 14.6773 0.9086C13.977 0.714514 12.9059 0.742241 12.2742 0.964052C10.5577 1.5879 9.4729 3.19603 9.59649 4.95666Z" fill="black"/>
</svg>
