<?xml version="1.0"?>
<svg xmlns="http://www.w3.org/2000/svg" id="Layer_5" enable-background="new 0 0 64 64" height="512px" viewBox="0 0 64 64" width="512px"><g><path d="m41 29c-6.065 0-11 4.935-11 11s4.935 11 11 11 11-4.935 11-11-4.935-11-11-11zm0 20c-4.963 0-9-4.037-9-9s4.037-9 9-9 9 4.037 9 9-4.037 9-9 9z" data-original="#000000" class="active-path" data-old_color="#000000" fill="#FFED00"/><path d="m42 37c.552 0 1 .448 1 1h2c0-1.654-1.346-3-3-3v-2h-2v2h-3v3c0 1.654 1.346 3 3 3h2c.552 0 1 .448 1 1v1h-3c-.552 0-1-.448-1-1h-2c0 1.654 1.346 3 3 3v2h2v-2h3v-3c0-1.654-1.346-3-3-3h-2c-.552 0-1-.448-1-1v-1z" data-original="#000000" class="active-path" data-old_color="#000000" fill="#FFED00"/><path d="m24.535 54.465h2v2h-2z" transform="matrix(.707 -.707 .707 .707 -31.741 34.301)" data-original="#000000" class="active-path" data-old_color="#000000" fill="#FFED00"/><path d="m27.379 51.671h1.899v2h-1.899z" transform="matrix(.707 -.707 .707 .707 -28.947 35.458)" data-original="#000000" class="active-path" data-old_color="#000000" fill="#FFED00"/><path d="m21.707 57.293h2v2h-2z" transform="matrix(.707 -.707 .707 .707 -34.569 33.13)" data-original="#000000" class="active-path" data-old_color="#000000" fill="#FFED00"/><path d="m63 1h-40v14h-4.726c1.667-1.467 2.726-3.61 2.726-6 0-4.411-3.589-8-8-8s-8 3.589-8 8c0 2.518 1.172 4.765 2.997 6.233-4.001.914-6.997 4.494-6.997 8.767v11c0 2.757 2.243 5 5 5v19c0 2.206 1.794 4 4 4 1.201 0 2.266-.542 3-1.382.734.84 1.799 1.382 3 1.382 1.27 0 2.391-.606 3.124-1.532.818.931 2.004 1.532 3.338 1.532 1.26 0 2.467-.536 3.312-1.472l7.727-8.557c2.209 1.282 4.766 2.029 7.499 2.029 8.271 0 15-6.729 15-15 0-1.027-.105-2.03-.302-3h7.302zm-56 8c0-3.309 2.691-6 6-6s6 2.691 6 6-2.691 6-6 6-6-2.691-6-6zm11 50c0 1.103-.897 2-2 2s-2-.897-2-2v-18-.758c0-.526.214-1.042.586-1.414l1.121-1.121-1.414-1.414-1.121 1.121c-.745.744-1.172 1.775-1.172 2.828v.758 18c0 1.103-.897 2-2 2s-2-.897-2-2v-38h-2v17c-1.654 0-3-1.346-3-3v-11c0-3.86 3.141-7 7-7h23.5c.827 0 1.5.673 1.5 1.5s-.673 1.5-1.5 1.5h-15.5zm11-45c0-3.519 2.614-6.432 6-6.92v6.506l-1.422 1.422c-.027-.001-.051-.008-.078-.008h-4.422c-.048-.331-.078-.664-.078-1zm6.653 1.761.761-.761h6.506c-.488 3.387-3.401 6-6.92 6-.018 0-.036-.003-.054-.003.649-.636 1.054-1.519 1.054-2.497 0-1.114-.533-2.097-1.347-2.739zm1.347-2.761v-5.92c3.059.441 5.479 2.861 5.92 5.92zm-8.971 34.5-8.029 7.25v-32.75h3v15h3.302c-.197.97-.302 1.973-.302 3 0 2.733.747 5.29 2.029 7.5zm-3.74 12.688c-.466.516-1.132.812-1.827.812-1.358 0-2.462-1.104-2.462-2.462 0-.695.296-1.361.812-1.827l8.347-7.537c.775.998 1.67 1.893 2.667 2.667zm16.711-7.188c-7.168 0-13-5.832-13-13s5.832-13 13-13 13 5.832 13 13-5.832 13-13 13zm20-18h-5.875c-2.066-5.816-7.609-10-14.125-10s-12.059 4.184-14.125 10h-1.875v-13h6.904c1.264.647 2.67 1 4.096 1 4.963 0 9-4.038 9-9s-4.037-9-9-9-9 4.038-9 9c0 .335.026.668.063 1h-2.063v-12h36z" data-original="#000000" class="active-path" data-old_color="#000000" fill="#FFED00"/><path d="m59 21h-2v-8h-2v8h-2v-12h-2v12h-2v-16h-2v18h12z" data-original="#000000" class="active-path" data-old_color="#000000" fill="#FFED00"/><path d="m57 27h2v2h-2z" data-original="#000000" class="active-path" data-old_color="#000000" fill="#FFED00"/><path d="m57 31h2v2h-2z" data-original="#000000" class="active-path" data-old_color="#000000" fill="#FFED00"/></g> </svg>
