<?xml version="1.0"?>
<svg xmlns="http://www.w3.org/2000/svg" xmlns:xlink="http://www.w3.org/1999/xlink" version="1.1" id="Capa_1" x="0px" y="0px" viewBox="0 0 512 512" style="enable-background:new 0 0 512 512;" xml:space="preserve" width="512px" height="512px"><g><g>
	<g>
		<g>
			<path d="M259.022,96.531L256,90.089l-3.022,6.442c-1.296,2.761-3.883,4.694-6.897,5.157l-7.683,1.17l5.862,6.009     c2.027,2.077,2.947,4.993,2.478,7.857l-1.286,7.88l6.125-3.384c2.753-1.524,6.096-1.524,8.848,0l6.125,3.384l-1.286-7.88     c-0.469-2.864,0.451-5.78,2.478-7.857l5.862-6.009l-7.683-1.17C262.905,101.226,260.319,99.292,259.022,96.531z" data-original="#000000" class="active-path" data-old_color="#000000" fill="#FFED00"/>
			<path d="M163.495,142.317l-0.103-8.388l-6.259,4.603c-2.455,1.813-5.655,2.276-8.522,1.232l-6.692-2.415l2.415,6.692     c1.037,2.868,0.575,6.065-1.232,8.522l-4.603,6.259l8.388,0.103c2.902,0.035,5.615,1.447,7.308,3.803l4.665,6.482l1.937-6.728     c0.87-3.022,3.233-5.384,6.254-6.254l6.728-1.937l-6.482-4.665C164.942,147.932,163.53,145.219,163.495,142.317z" data-original="#000000" class="active-path" data-old_color="#000000" fill="#FFED00"/>
			<path d="M125.791,247.004l3.384-6.125l-7.88,1.286c-2.863,0.463-5.777-0.456-7.857-2.478l-6.009-5.862l-1.17,7.683     c-0.462,3.015-2.396,5.601-5.157,6.897l-6.442,3.022l6.442,3.022c2.761,1.296,4.694,3.883,5.157,6.897l1.17,7.683l6.009-5.862     c2.08-2.022,4.994-2.941,7.857-2.478l7.88,1.286l-3.384-6.125C124.268,253.1,124.268,249.757,125.791,247.004z" data-original="#000000" class="active-path" data-old_color="#000000" fill="#FFED00"/>
			<path d="M364.009,157.451L364.009,157.451l6.264,4.603l0.103-8.393c0.035-2.902,1.447-5.615,3.803-7.308l6.482-4.665     l-6.728-1.937c-3.022-0.87-5.384-3.233-6.255-6.255l-1.937-6.728l-4.665,6.482c-1.693,2.357-4.406,3.769-7.308,3.803     l-8.393,0.103l4.603,6.263c1.806,2.456,2.269,5.651,1.232,8.518l-2.415,6.696l6.696-2.415     C358.358,155.181,361.553,155.643,364.009,157.451z" data-original="#000000" class="active-path" data-old_color="#000000" fill="#FFED00"/>
			<path d="M502.857,41.143H9.143C4.096,41.149,0.007,45.239,0,50.286v329.143c0.007,5.047,4.096,9.136,9.143,9.143h92.189     c7.569-46.818,72.768-82.286,154.669-82.286s147.099,35.468,154.669,82.286h92.189c5.047-0.007,9.136-4.096,9.143-9.143V50.286     C511.993,45.239,507.904,41.149,502.857,41.143z M154.286,269.607c1.695,3.064,1.491,6.827-0.525,9.69     c-2.017,2.863-5.492,4.322-8.948,3.756l-21.911-3.571l-15.437,15.063c-2.453,2.393-6.038,3.213-9.287,2.125     c-3.249-1.088-5.617-3.902-6.133-7.29l-3.125-20.446l-19.661-9.228C66.05,258.199,64,254.974,64,251.429s2.049-6.771,5.259-8.277     l19.661-9.228l3.125-20.446c0.516-3.387,2.884-6.201,6.133-7.29c3.249-1.088,6.834-0.268,9.287,2.125l15.437,15.063l21.911-3.571     c3.456-0.565,6.931,0.894,8.948,3.756c2.017,2.863,2.221,6.626,0.525,9.69l-10.049,18.179L154.286,269.607z M203.411,159.429     L203.411,159.429c-0.599,3.449-3.114,6.254-6.478,7.223l-19.96,5.75l-5.75,19.96c-0.969,3.364-3.774,5.879-7.223,6.478     c-0.516,0.089-1.039,0.133-1.563,0.134c-2.942,0.002-5.704-1.414-7.42-3.803l-12.969-18.018l-21.567-0.263     c-3.427-0.043-6.542-1.998-8.07-5.065s-1.213-6.732,0.816-9.493l12.25-16.665l-7.375-20.429     c-1.204-3.334-0.373-7.064,2.134-9.571c2.507-2.507,6.237-3.339,9.571-2.134l20.429,7.375l16.665-12.25     c2.761-2.029,6.426-2.344,9.493-0.816c3.067,1.528,5.022,4.644,5.065,8.07l0.263,21.567l18.018,12.969     C202.584,152.49,204.009,155.979,203.411,159.429z M299.116,102.893L299.116,102.893l-15.063,15.437l3.571,21.911     c0.565,3.456-0.894,6.931-3.756,8.948s-6.626,2.221-9.69,0.525L256,139.665l-18.179,10.049c-3.064,1.695-6.827,1.491-9.69-0.525     c-2.863-2.017-4.322-5.492-3.756-8.948l3.571-21.911l-15.063-15.437c-2.393-2.453-3.213-6.038-2.125-9.287     c1.088-3.249,3.902-5.617,7.29-6.133l20.446-3.125l9.228-19.661c1.506-3.209,4.732-5.259,8.277-5.259s6.771,2.049,8.277,5.259     l9.228,19.661l20.446,3.125c3.387,0.516,6.201,2.884,7.29,6.133C302.329,96.855,301.509,100.44,299.116,102.893z      M327.116,180.313L327.116,180.313c-2.509-2.506-3.341-6.237-2.134-9.571l7.375-20.424l-12.25-16.67     c-2.031-2.761-2.346-6.426-0.818-9.494c1.529-3.068,4.645-5.023,8.072-5.064l21.567-0.263l12.969-18.018     c2.044-2.843,5.532-4.268,8.982-3.67c3.45,0.598,6.255,3.114,7.224,6.478l5.75,19.96l19.96,5.75     c3.364,0.969,5.88,3.774,6.478,7.224s-0.827,6.938-3.67,8.982L388.603,158.5l-0.263,21.567c-0.042,3.427-1.997,6.543-5.064,8.071     c-3.068,1.529-6.732,1.213-9.494-0.817l-16.67-12.25l-20.424,7.375C333.353,183.651,329.623,182.819,327.116,180.313z      M446.857,269.607c1.695,3.064,1.491,6.827-0.525,9.69c-2.017,2.863-5.492,4.322-8.948,3.756l-21.911-3.571l-15.437,15.063     c-2.453,2.393-6.038,3.213-9.287,2.125c-3.249-1.088-5.617-3.902-6.133-7.29l-3.125-20.446l-19.661-9.228     c-3.209-1.506-5.259-4.732-5.259-8.277s2.049-6.771,5.259-8.277l19.661-9.228l3.125-20.446c0.516-3.387,2.884-6.201,6.133-7.29     c3.249-1.088,6.834-0.268,9.287,2.125l15.437,15.063l21.911-3.571c3.456-0.565,6.931,0.894,8.948,3.756     c2.017,2.863,2.221,6.626,0.525,9.69l-10.049,18.179L446.857,269.607z" data-original="#000000" class="active-path" data-old_color="#000000" fill="#FFED00"/>
			<path d="M256,324.571c-74.339,0-137.143,33.496-137.143,73.143S181.661,470.857,256,470.857s137.143-33.496,137.143-73.143     S330.339,324.571,256,324.571z M228.571,388.571c5.049,0,9.143,4.093,9.143,9.143s-4.093,9.143-9.143,9.143h-18.286v18.286     h27.429c5.049,0,9.143,4.093,9.143,9.143c0,5.049-4.093,9.143-9.143,9.143h-36.571c-5.049,0-9.143-4.093-9.143-9.143v-73.143     c0-5.049,4.093-9.143,9.143-9.143h36.571c5.049,0,9.143,4.093,9.143,9.143c0,5.049-4.093,9.143-9.143,9.143h-27.429v18.286     H228.571z M320,416c-0.017,15.142-12.287,27.412-27.429,27.429h-9.143C268.287,443.412,256.017,431.142,256,416v-54.857     c0-5.049,4.093-9.143,9.143-9.143c5.049,0,9.143,4.093,9.143,9.143V416c0.007,5.047,4.096,9.136,9.143,9.143h9.143     c5.047-0.007,9.136-4.096,9.143-9.143v-54.857c0-5.049,4.093-9.143,9.143-9.143c5.049,0,9.143,4.093,9.143,9.143V416z" data-original="#000000" class="active-path" data-old_color="#000000" fill="#FFED00"/>
			<path d="M418.362,247.004l3.384-6.125l-7.88,1.286c-2.863,0.463-5.777-0.456-7.857-2.478L400,233.826l-1.17,7.683     c-0.462,3.015-2.396,5.601-5.157,6.897l-6.442,3.022l6.442,3.022c2.761,1.296,4.694,3.883,5.157,6.897l1.17,7.683l6.009-5.862     c2.08-2.022,4.994-2.941,7.857-2.478l7.879,1.286l-3.384-6.125C416.84,253.1,416.84,249.757,418.362,247.004z" data-original="#000000" class="active-path" data-old_color="#000000" fill="#FFED00"/>
		</g>
	</g>
</g></g> </svg>
