<?xml version="1.0"?>
<svg xmlns="http://www.w3.org/2000/svg" xmlns:xlink="http://www.w3.org/1999/xlink" version="1.1" id="Capa_1" x="0px" y="0px" viewBox="0 0 510.166 510.166" style="enable-background:new 0 0 510.166 510.166;" xml:space="preserve" width="512px" height="512px"><g><g>
	<g>
		<path d="M243.263,264.544L149.015,62.788c-2.448-5.1-8.364-7.344-13.464-4.896C50.687,97.468-2.557,183.556,0.095,277.192    s60.792,176.664,147.9,211.14c27.744,11.016,56.916,16.524,86.496,16.524c62.628,0,121.584-24.48,165.852-68.748    c4.08-4.08,4.08-10.404,0-14.484L243.263,264.544z M234.695,484.66c-27.132,0-53.652-5.1-78.948-15.096    c-79.56-31.62-132.6-107.304-135.048-192.78c-2.448-82.212,42.228-157.896,114.444-195.84l90.372,194.004    c0.408,1.02,1.224,2.04,2.04,2.856l151.368,151.368C339.347,464.872,288.551,484.66,234.695,484.66z" data-original="#000000" class="active-path" data-old_color="#000000" fill="#FFED00"/>
		<path d="M506.627,209.26c-13.26-75.276-62.628-139.536-131.988-171.972c-5.1-2.448-11.22-0.204-13.464,4.896l-94.86,203.388    c-1.836,3.876-1.02,8.568,2.04,11.424l158.712,158.712c1.836,1.836,4.488,3.06,7.14,3.06s5.304-1.02,7.14-3.06    C495.407,361.852,519.887,284.536,506.627,209.26z M434.003,394.084L287.735,247.816L375.047,60.34    c58.548,30.804,99.756,86.904,111.18,152.388C498.059,278.212,478.475,345.328,434.003,394.084z" data-original="#000000" class="active-path" data-old_color="#000000" fill="#FFED00"/>
		<path d="M349.955,26.272c-60.18-27.948-129.54-27.948-189.72,0l94.86,203.388L349.955,26.272z" data-original="#000000" class="active-path" data-old_color="#000000" fill="#FFED00"/>
	</g>
</g></g> </svg>
