<svg width="45" height="45" viewBox="0 0 45 45" fill="none" xmlns="http://www.w3.org/2000/svg">
<rect x="1" y="1" width="43" height="43" fill="white" stroke="black" stroke-width="2"/>
<mask id="mask0" mask-type="alpha" maskUnits="userSpaceOnUse" x="0" y="0" width="45" height="45">
<path fill-rule="evenodd" clip-rule="evenodd" d="M0 22.5C0 10.0736 10.0736 0 22.5 0C34.9264 0 45 10.0736 45 22.5C45 34.9264 34.9264 45 22.5 45C10.0736 45 0 34.9264 0 22.5Z" fill="white"/>
</mask>
<g mask="url(#mask0)">
<path fill-rule="evenodd" clip-rule="evenodd" d="M22.5011 10.5C19.2421 10.5 18.8331 10.5143 17.5531 10.5725C16.2756 10.631 15.4036 10.8333 14.6405 11.13C13.8513 11.4365 13.1818 11.8465 12.5148 12.5138C11.8473 13.1808 11.4373 13.8503 11.1298 14.6393C10.8323 15.4026 10.6298 16.2748 10.5723 17.5519C10.515 18.8319 10.5 19.2411 10.5 22.5002C10.5 25.7592 10.5145 26.1669 10.5725 27.447C10.6313 28.7245 10.8335 29.5965 11.13 30.3595C11.4368 31.1487 11.8468 31.8183 12.514 32.4853C13.1808 33.1528 13.8503 33.5638 14.639 33.8703C15.4026 34.167 16.2748 34.3693 17.5521 34.4278C18.8321 34.486 19.2408 34.5003 22.4996 34.5003C25.7589 34.5003 26.1667 34.486 27.4467 34.4278C28.7242 34.3693 29.5972 34.167 30.3607 33.8703C31.1497 33.5638 31.8182 33.1528 32.485 32.4853C33.1525 31.8183 33.5625 31.1487 33.87 30.3597C34.165 29.5965 34.3675 28.7242 34.4275 27.4472C34.485 26.1672 34.5 25.7592 34.5 22.5002C34.5 19.2411 34.485 18.8321 34.4275 17.5521C34.3675 16.2746 34.165 15.4026 33.87 14.6396C33.5625 13.8503 33.1525 13.1808 32.485 12.5138C31.8175 11.8463 31.15 11.4363 30.36 11.13C29.5949 10.8333 28.7224 10.631 27.4449 10.5725C26.1649 10.5143 25.7574 10.5 22.4974 10.5H22.5011ZM21.4252 12.6625C21.7447 12.662 22.1012 12.6625 22.5017 12.6625C25.7057 12.6625 26.0855 12.674 27.3507 12.7315C28.5207 12.785 29.1557 12.9805 29.5787 13.1448C30.1387 13.3623 30.538 13.6223 30.9578 14.0423C31.3778 14.4623 31.6378 14.8623 31.8558 15.4223C32.02 15.8448 32.2158 16.4798 32.269 17.6498C32.3265 18.9148 32.339 19.2948 32.339 22.4973C32.339 25.6999 32.3265 26.0799 32.269 27.3449C32.2155 28.5149 32.02 29.1499 31.8558 29.5724C31.6383 30.1324 31.3778 30.5312 30.9578 30.9509C30.5378 31.3709 30.139 31.6309 29.5787 31.8484C29.1562 32.0134 28.5207 32.2085 27.3507 32.262C26.0857 32.3195 25.7057 32.332 22.5017 32.332C19.2974 32.332 18.9176 32.3195 17.6526 32.262C16.4826 32.208 15.8476 32.0124 15.4243 31.8482C14.8643 31.6307 14.4643 31.3707 14.0443 30.9507C13.6243 30.5307 13.3643 30.1317 13.1463 29.5714C12.9821 29.1489 12.7863 28.5139 12.7331 27.3439C12.6756 26.0789 12.6641 25.6989 12.6641 22.4943C12.6641 19.2898 12.6756 18.9118 12.7331 17.6468C12.7866 16.4768 12.9821 15.8418 13.1463 15.4188C13.3638 14.8588 13.6243 14.4588 14.0443 14.0388C14.4643 13.6188 14.8643 13.3588 15.4243 13.1408C15.8473 12.9757 16.4826 12.7807 17.6526 12.727C18.7596 12.677 19.1886 12.662 21.4252 12.6595V12.6625ZM28.9068 14.6551C28.1118 14.6551 27.4668 15.2993 27.4668 16.0946C27.4668 16.8896 28.1118 17.5346 28.9068 17.5346C29.7018 17.5346 30.3468 16.8896 30.3468 16.0946C30.3468 15.2996 29.7018 14.6546 28.9068 14.6546V14.6551ZM22.5005 16.3375C19.0972 16.3375 16.3379 19.0968 16.3379 22.5001C16.3379 25.9034 19.0972 28.6614 22.5005 28.6614C25.9037 28.6614 28.662 25.9034 28.662 22.5001C28.662 19.0968 25.9035 16.3375 22.5002 16.3375H22.5005ZM22.5 18.5001C24.7091 18.5001 26.5001 20.2909 26.5001 22.5002C26.5001 24.7092 24.7091 26.5002 22.5 26.5002C20.2908 26.5002 18.5 24.7092 18.5 22.5002C18.5 20.2909 20.2908 18.5001 22.5 18.5001Z" fill="black"/>
</g>
</svg>
