<svg width="20" height="14" viewBox="0 0 20 14" fill="none" xmlns="http://www.w3.org/2000/svg">
<path d="M10.0251 8.33381H10.0294C10.1802 8.33381 10.3292 8.29005 10.4498 8.21038L10.4825 8.18936C10.4897 8.18472 10.4971 8.18051 10.5046 8.17551L10.8856 7.86031L19.979 0.356258C19.9602 0.330278 19.9281 0.3125 19.894 0.3125H0.105654C0.0811111 0.3125 0.0583333 0.321389 0.0401961 0.336324L9.55409 8.17796C9.67399 8.27724 9.84507 8.33381 10.0251 8.33381ZM0 1.3758V12.499L6.81536 6.99342L0 1.3758ZM13.1918 7.03077L20 12.5018V1.41279L13.1918 7.03077ZM11.0272 8.81652C10.7558 9.0392 10.4008 9.16195 10.0279 9.16195C9.65373 9.16195 9.29905 9.03992 9.02837 8.81828L7.46742 7.5309L0 13.5623V13.5815C0 13.6388 0.049085 13.6875 0.107059 13.6875H19.8943C19.9512 13.6875 20 13.6388 20 13.5811V13.5634L12.539 7.56864L11.0272 8.81652Z" fill="#FFED00"/>
</svg>
