<svg width="45" height="45" viewBox="0 0 45 45" fill="none" xmlns="http://www.w3.org/2000/svg">
<rect width="45" height="45" fill="#4C6C91"/>
<path fill-rule="evenodd" clip-rule="evenodd" d="M23.675 29.8838C23.675 29.8838 24.1082 29.8365 24.33 29.6026C24.5331 29.3883 24.5261 28.9839 24.5261 28.9839C24.5261 28.9839 24.4991 27.0953 25.3924 26.8165C26.2728 26.5423 27.4032 28.6428 28.6028 29.4505C29.509 30.0612 30.1969 29.9275 30.1969 29.9275L33.4027 29.8838C33.4027 29.8838 35.0789 29.7824 34.2842 28.4884C34.2185 28.3824 33.8205 27.5309 31.9013 25.7818C29.8905 23.9509 30.1605 24.247 32.581 21.0795C34.0553 19.1507 34.6446 17.9731 34.4603 17.4695C34.2854 16.9879 33.2008 17.1158 33.2008 17.1158L29.5924 17.1377C29.5924 17.1377 29.3247 17.102 29.1264 17.2184C28.9327 17.3324 28.8071 17.5986 28.8071 17.5986C28.8071 17.5986 28.2366 19.0907 27.4748 20.3605C25.8678 23.0383 25.2257 23.18 24.9627 23.0141C24.3512 22.6258 24.5038 21.4563 24.5038 20.6255C24.5038 18.0295 24.9052 16.9476 23.7232 16.6676C23.3311 16.5743 23.0423 16.5132 22.0387 16.5028C20.751 16.4901 19.6617 16.5074 19.0442 16.8036C18.6334 17.0006 18.3165 17.4407 18.5101 17.4661C18.7484 17.4972 19.2884 17.609 19.5748 17.9915C19.9446 18.4858 19.9317 19.5943 19.9317 19.5943C19.9317 19.5943 20.1441 22.65 19.4351 23.0291C18.9492 23.2895 18.2824 22.7583 16.8492 20.3283C16.1155 19.0838 15.5615 17.7081 15.5615 17.7081C15.5615 17.7081 15.4546 17.4511 15.2633 17.3128C15.0321 17.1458 14.7092 17.0939 14.7092 17.0939L11.2805 17.1158C11.2805 17.1158 10.7651 17.1296 10.5762 17.3497C10.4083 17.5444 10.5632 17.9489 10.5632 17.9489C10.5632 17.9489 13.2478 24.1145 16.2881 27.2221C19.0759 30.0704 22.2406 29.8838 22.2406 29.8838H23.675Z" fill="white"/>
</svg>
